<svg width="28" height="29" viewBox="0 0 28 29" fill="none" xmlns="http://www.w3.org/2000/svg">
<rect x="0.5" y="0.5" width="27" height="28" rx="5.5" stroke="#2A2E34"/>
<path d="M15.125 14.5C15.125 15.3349 14.4458 16 13.625 16C12.7901 16 12.125 15.3208 12.125 14.5C12.125 13.6651 12.8042 13 13.625 13C14.4599 13 15.125 13.6651 15.125 14.5Z" fill="#2A2E34"/>
<path d="M15.125 19.5C15.125 20.3349 14.4458 21 13.625 21C12.7901 21 12.125 20.3208 12.125 19.5C12.125 18.6792 12.7901 18 13.625 18C14.4599 18 15.125 18.6651 15.125 19.5Z" fill="#2A2E34"/>
<path d="M15.125 9.5C15.125 10.3349 14.4458 11 13.625 11C12.7901 11 12.125 10.3208 12.125 9.5C12.125 8.67923 12.7901 8 13.625 8C14.4599 8 15.125 8.66511 15.125 9.5Z" fill="#2A2E34"/>
</svg>
