<svg width="24" height="24" viewBox="0 0 24 24" fill="none" xmlns="http://www.w3.org/2000/svg">
<path d="M9 17V19C9 20.1046 9.89543 21 11 21H20C21.1046 21 22 20.1046 22 19V12C22 10.8954 21.1046 10 20 10H18" stroke="#2A2E34" stroke-width="1.5" stroke-linecap="round" stroke-linejoin="round"/>
<path d="M5 13V15C5 16.1046 5.89543 17 7 17H16C17.1046 17 18 16.1046 18 15V8C18 6.89543 17.1046 6 16 6H14" stroke="#2A2E34" stroke-width="1.5" stroke-linecap="round" stroke-linejoin="round"/>
<path fill-rule="evenodd" clip-rule="evenodd" d="M14 4V11C14 12.1046 13.1046 13 12 13H4C2.89543 13 2 12.1046 2 11V6.82843C2 6.298 2.21072 5.78929 2.58579 5.41422L5.41421 2.58579C5.78928 2.21071 6.29799 2 6.82843 2H12C13.1046 2 14 2.89543 14 4Z" stroke="#2A2E34" stroke-width="1.5" stroke-linecap="round" stroke-linejoin="round"/>
</svg>
