<svg width="16" height="16" viewBox="0 0 16 16" fill="none" xmlns="http://www.w3.org/2000/svg">
<path d="M8.0001 6.86699C8.87201 6.86699 9.56661 7.57633 9.56661 8.43349C9.56661 9.3054 8.85726 10 8.0001 10C7.12819 10 6.43359 9.29065 6.43359 8.43349C6.43359 7.56158 7.12819 6.86699 8.0001 6.86699Z" fill="#656F7D"/>
<path d="M12.4337 6.86699C13.3056 6.86699 14.0002 7.57633 14.0002 8.43349C14.0002 9.3054 13.2909 10 12.4337 10C11.5765 10 10.8672 9.3054 10.8672 8.43349C10.8672 7.56158 11.5618 6.86699 12.4337 6.86699Z" fill="#656F7D"/>
<path d="M3.56651 6.86699C4.43842 6.86699 5.13301 7.57633 5.13301 8.43349C5.13301 9.3054 4.42367 10 3.56651 10C2.70935 10 2 9.3054 2 8.43349C2 7.56158 2.69459 6.86699 3.56651 6.86699Z" fill="#656F7D"/>
</svg>
