<svg width="69" height="20" viewBox="0 0 69 20" fill="none" xmlns="http://www.w3.org/2000/svg">
<path d="M15 5V15.625C15 16.6608 14.1442 17.5 13.1092 17.5H6.85917C5.82333 17.5 5 16.6608 5 15.625V5" stroke="#EB5757" stroke-width="1.5" stroke-linecap="round" stroke-linejoin="round"/>
<path d="M16.25 5.00065H3.75" stroke="#EB5757" stroke-width="1.5" stroke-linecap="round" stroke-linejoin="round"/>
<path d="M8.33337 2.50065H11.6667" stroke="#EB5757" stroke-width="1.5" stroke-linecap="round" stroke-linejoin="round"/>
<path d="M11.6667 8.33398V14.1673" stroke="#EB5757" stroke-width="1.5" stroke-linecap="round" stroke-linejoin="round"/>
<path d="M8.33329 14.1673V8.33398" stroke="#EB5757" stroke-width="1.5" stroke-linecap="round" stroke-linejoin="round"/>
<path d="M30.375 15H27.233V4.81818H30.5142C31.5019 4.81818 32.3471 5.02202 33.0497 5.42969C33.7524 5.83404 34.291 6.41572 34.6655 7.17472C35.04 7.9304 35.2273 8.83523 35.2273 9.8892C35.2273 10.9498 35.0384 11.8629 34.6605 12.6286C34.2827 13.3909 33.7325 13.9775 33.0099 14.3885C32.2874 14.7962 31.4091 15 30.375 15ZM28.4659 13.9062H30.2955C31.1373 13.9062 31.835 13.7438 32.3885 13.419C32.942 13.0942 33.3546 12.6319 33.6264 12.032C33.8982 11.4321 34.0341 10.7178 34.0341 9.8892C34.0341 9.06723 33.8999 8.35961 33.6314 7.76633C33.3629 7.16974 32.9619 6.71236 32.4283 6.39418C31.8946 6.07268 31.2301 5.91193 30.4347 5.91193H28.4659V13.9062ZM40.3381 15.1591C39.6023 15.1591 38.9676 14.9967 38.4339 14.6719C37.9036 14.3438 37.4943 13.8864 37.206 13.2997C36.9209 12.7098 36.7784 12.0237 36.7784 11.2415C36.7784 10.4593 36.9209 9.76989 37.206 9.1733C37.4943 8.57339 37.8954 8.10606 38.4091 7.77131C38.9261 7.43324 39.5294 7.2642 40.2188 7.2642C40.6165 7.2642 41.0092 7.33049 41.397 7.46307C41.7848 7.59564 42.1378 7.81108 42.456 8.10938C42.7741 8.40436 43.0277 8.79545 43.2166 9.28267C43.4055 9.76989 43.5 10.3698 43.5 11.0824V11.5795H37.6136V10.5653H42.3068C42.3068 10.1345 42.2206 9.75 42.0483 9.41193C41.8793 9.07386 41.6373 8.80705 41.3224 8.61151C41.0109 8.41596 40.643 8.31818 40.2188 8.31818C39.7514 8.31818 39.3471 8.43419 39.0057 8.66619C38.6676 8.89489 38.4074 9.19318 38.2251 9.56108C38.0429 9.92898 37.9517 10.3234 37.9517 10.7443V11.4205C37.9517 11.9972 38.0511 12.486 38.25 12.8871C38.4522 13.2848 38.7322 13.5881 39.0902 13.7969C39.4482 14.0024 39.8641 14.1051 40.3381 14.1051C40.6463 14.1051 40.9247 14.062 41.1733 13.9759C41.4252 13.8864 41.6423 13.7538 41.8246 13.5781C42.0069 13.3991 42.1477 13.1771 42.2472 12.9119L43.3807 13.2301C43.2614 13.6146 43.0608 13.9527 42.7791 14.2443C42.4974 14.5327 42.1494 14.758 41.7351 14.9205C41.3208 15.0795 40.8551 15.1591 40.3381 15.1591ZM46.4581 4.81818V15H45.2848V4.81818H46.4581ZM51.8088 15.1591C51.073 15.1591 50.4383 14.9967 49.9047 14.6719C49.3743 14.3438 48.965 13.8864 48.6767 13.2997C48.3916 12.7098 48.2491 12.0237 48.2491 11.2415C48.2491 10.4593 48.3916 9.76989 48.6767 9.1733C48.965 8.57339 49.3661 8.10606 49.8798 7.77131C50.3968 7.43324 51.0001 7.2642 51.6895 7.2642C52.0872 7.2642 52.4799 7.33049 52.8677 7.46307C53.2555 7.59564 53.6085 7.81108 53.9267 8.10938C54.2449 8.40436 54.4984 8.79545 54.6873 9.28267C54.8762 9.76989 54.9707 10.3698 54.9707 11.0824V11.5795H49.0843V10.5653H53.7775C53.7775 10.1345 53.6913 9.75 53.519 9.41193C53.35 9.07386 53.108 8.80705 52.7931 8.61151C52.4816 8.41596 52.1137 8.31818 51.6895 8.31818C51.2221 8.31818 50.8178 8.43419 50.4764 8.66619C50.1383 8.89489 49.8781 9.19318 49.6958 9.56108C49.5136 9.92898 49.4224 10.3234 49.4224 10.7443V11.4205C49.4224 11.9972 49.5218 12.486 49.7207 12.8871C49.9229 13.2848 50.2029 13.5881 50.5609 13.7969C50.9189 14.0024 51.3348 14.1051 51.8088 14.1051C52.117 14.1051 52.3954 14.062 52.644 13.9759C52.8959 13.8864 53.113 13.7538 53.2953 13.5781C53.4776 13.3991 53.6184 13.1771 53.7179 12.9119L54.8514 13.2301C54.7321 13.6146 54.5315 13.9527 54.2498 14.2443C53.9681 14.5327 53.6201 14.758 53.2058 14.9205C52.7915 15.0795 52.3258 15.1591 51.8088 15.1591ZM60.0765 7.36364V8.35795H56.1191V7.36364H60.0765ZM57.2725 5.53409H58.4458V12.8125C58.4458 13.1439 58.4939 13.3925 58.59 13.5582C58.6895 13.7206 58.8154 13.83 58.9679 13.8864C59.1236 13.9394 59.2877 13.9659 59.46 13.9659C59.5893 13.9659 59.6954 13.9593 59.7782 13.946C59.8611 13.9295 59.9274 13.9162 59.9771 13.9062L60.2157 14.9602C60.1362 14.9901 60.0252 15.0199 59.8826 15.0497C59.7401 15.0829 59.5595 15.0994 59.3407 15.0994C59.0093 15.0994 58.6845 15.0282 58.3663 14.8857C58.0514 14.7431 57.7896 14.526 57.5808 14.2344C57.3753 13.9427 57.2725 13.5748 57.2725 13.1307V5.53409ZM64.9611 15.1591C64.2253 15.1591 63.5906 14.9967 63.057 14.6719C62.5267 14.3438 62.1174 13.8864 61.829 13.2997C61.544 12.7098 61.4015 12.0237 61.4015 11.2415C61.4015 10.4593 61.544 9.76989 61.829 9.1733C62.1174 8.57339 62.5184 8.10606 63.0321 7.77131C63.5492 7.43324 64.1524 7.2642 64.8418 7.2642C65.2395 7.2642 65.6323 7.33049 66.0201 7.46307C66.4078 7.59564 66.7608 7.81108 67.079 8.10938C67.3972 8.40436 67.6507 8.79545 67.8397 9.28267C68.0286 9.76989 68.123 10.3698 68.123 11.0824V11.5795H62.2367V10.5653H66.9299C66.9299 10.1345 66.8437 9.75 66.6713 9.41193C66.5023 9.07386 66.2604 8.80705 65.9455 8.61151C65.6339 8.41596 65.266 8.31818 64.8418 8.31818C64.3745 8.31818 63.9701 8.43419 63.6287 8.66619C63.2907 8.89489 63.0305 9.19318 62.8482 9.56108C62.6659 9.92898 62.5748 10.3234 62.5748 10.7443V11.4205C62.5748 11.9972 62.6742 12.486 62.873 12.8871C63.0752 13.2848 63.3553 13.5881 63.7132 13.7969C64.0712 14.0024 64.4872 14.1051 64.9611 14.1051C65.2694 14.1051 65.5478 14.062 65.7963 13.9759C66.0482 13.8864 66.2653 13.7538 66.4476 13.5781C66.6299 13.3991 66.7708 13.1771 66.8702 12.9119L68.0037 13.2301C67.8844 13.6146 67.6839 13.9527 67.4022 14.2443C67.1204 14.5327 66.7724 14.758 66.3581 14.9205C65.9438 15.0795 65.4782 15.1591 64.9611 15.1591Z" fill="#EB5757"/>
</svg>
