<svg width="20" height="21" viewBox="0 0 20 21" fill="none" xmlns="http://www.w3.org/2000/svg">
<path fill-rule="evenodd" clip-rule="evenodd" d="M15.3463 5.845L12.9896 3.48833C12.6771 3.17583 12.253 3 11.8113 3H5.83464C4.9138 3 4.16797 3.74583 4.16797 4.66667V16.3333C4.16797 17.2542 4.9138 18 5.83464 18H14.168C15.0888 18 15.8346 17.2542 15.8346 16.3333V7.02333C15.8346 6.58167 15.6588 6.1575 15.3463 5.845V5.845Z" stroke="white" stroke-width="1.5" stroke-linecap="round" stroke-linejoin="round"/>
<path d="M9.24245 9.66576L7.55078 11.3574" stroke="white" stroke-width="1.5" stroke-linecap="round" stroke-linejoin="round"/>
<path d="M10.8339 11.2578L9.24219 9.66615" stroke="white" stroke-width="1.5" stroke-linecap="round" stroke-linejoin="round"/>
<path d="M9.24219 9.66602V14.666" stroke="white" stroke-width="1.5" stroke-linecap="round" stroke-linejoin="round"/>
<path d="M15.8346 7.16667H12.5013C12.0413 7.16667 11.668 6.79333 11.668 6.33333V3" stroke="white" stroke-width="1.5" stroke-linecap="round" stroke-linejoin="round"/>
</svg>
