<svg width="40" height="40" viewBox="0 0 40 40" fill="none" xmlns="http://www.w3.org/2000/svg">
<g clip-path="url(#clip0_662_502)">
<path d="M20.001 27.4121C18.8827 27.4121 17.9453 28.3495 17.9453 29.4678C17.9453 30.586 18.8827 31.5234 20.001 31.5234C21.0781 31.5234 22.0566 30.586 22.0073 29.5171C22.0566 28.3413 21.1275 27.4121 20.001 27.4121Z" fill="#ED1C24"/>
<path d="M39.0266 34.6977C40.3176 32.4694 40.3258 29.8135 39.0431 27.5934L26.1665 5.29364C24.892 3.04886 22.5896 1.7168 20.0077 1.7168C17.4258 1.7168 15.1235 3.05708 13.849 5.28541L0.955919 27.6098C-0.32681 29.8546 -0.318587 32.5269 0.980587 34.7553C2.26332 36.9589 4.55743 38.2828 7.12288 38.2828H32.8432C35.4169 38.2828 37.7275 36.9425 39.0266 34.6977ZM36.231 33.0861C35.5156 34.3195 34.2493 35.0513 32.835 35.0513H7.11466C5.71682 35.0513 4.45875 34.3359 3.75983 33.1272C3.05269 31.902 3.04446 30.4384 3.75161 29.205L16.6447 6.88882C17.3436 5.66365 18.5934 4.94006 20.0077 4.94006C21.4138 4.94006 22.6719 5.67188 23.3708 6.89705L36.2556 29.2132C36.9463 30.4137 36.9381 31.8609 36.231 33.0861Z" fill="#ED1C24"/>
<path d="M19.4932 12.9819C18.5147 13.2614 17.9062 14.1495 17.9062 15.2266C17.9556 15.8762 17.9967 16.534 18.046 17.1836C18.1858 19.6586 18.3256 22.0843 18.4654 24.5593C18.5147 25.398 19.1643 26.0065 20.003 26.0065C20.8417 26.0065 21.4995 25.3569 21.5406 24.51C21.5406 24.0002 21.5406 23.5315 21.59 23.0135C21.6804 21.4265 21.7791 19.8395 21.8696 18.2526C21.9189 17.2247 22.0093 16.1969 22.0587 15.1691C22.0587 14.7991 22.0093 14.4702 21.8696 14.1413C21.4502 13.2203 20.4717 12.7516 19.4932 12.9819Z" fill="#ED1C24"/>
</g>
<defs>
<clipPath id="clip0_662_502">
<rect width="40" height="40" fill="white"/>
</clipPath>
</defs>
</svg>
