<svg width="20" height="20" viewBox="0 0 20 20" fill="none" xmlns="http://www.w3.org/2000/svg">
<path fill-rule="evenodd" clip-rule="evenodd" d="M7.08444 1.09375H11.8984H12.1562H12.1569H12.5367L17.3331 5.5436V5.90543L17.3362 5.90834L17.3337 5.90891V16.3764C17.3337 17.7865 16.1906 18.9296 14.7805 18.9296H7.08445C5.67436 18.9296 4.53125 17.7865 4.53125 16.3764V3.64695C4.53125 2.23686 5.67435 1.09375 7.08444 1.09375ZM16.1665 5.91401H14.7094C13.2994 5.91401 12.1562 4.7709 12.1562 3.36081V2.26092H7.08444C6.31897 2.26092 5.69842 2.88147 5.69842 3.64695V16.3764C5.69842 17.1419 6.31897 17.7625 7.08445 17.7625H14.7805C15.546 17.7625 16.1665 17.1419 16.1665 16.3764V5.91401Z" fill="#231C16"/>
<rect x="2.89062" y="9.66406" width="12.2189" height="6.27356" rx="0.802432" fill="#231C16"/>
<path d="M3.95688 13.0269C3.95688 12.6802 4.02854 12.3719 4.17188 12.1019C4.31854 11.8285 4.52521 11.6169 4.79188 11.4669C5.05854 11.3135 5.36521 11.2369 5.71188 11.2369C6.15188 11.2369 6.52188 11.3552 6.82188 11.5919C7.12188 11.8252 7.31521 12.1435 7.40188 12.5469H6.34688C6.28354 12.4135 6.19521 12.3119 6.08188 12.2419C5.97188 12.1719 5.84354 12.1369 5.69688 12.1369C5.47021 12.1369 5.28854 12.2185 5.15188 12.3819C5.01854 12.5419 4.95188 12.7569 4.95188 13.0269C4.95188 13.3002 5.01854 13.5185 5.15188 13.6819C5.28854 13.8419 5.47021 13.9219 5.69688 13.9219C5.84354 13.9219 5.97188 13.8869 6.08188 13.8169C6.19521 13.7469 6.28354 13.6452 6.34688 13.5119H7.40188C7.31521 13.9152 7.12188 14.2352 6.82188 14.4719C6.52188 14.7052 6.15188 14.8219 5.71188 14.8219C5.36521 14.8219 5.05854 14.7469 4.79188 14.5969C4.52521 14.4435 4.31854 14.2319 4.17188 13.9619C4.02854 13.6885 3.95688 13.3769 3.95688 13.0269ZM9.19594 14.8319C8.78594 14.8319 8.44927 14.7352 8.18594 14.5419C7.9226 14.3452 7.78094 14.0652 7.76094 13.7019H8.80594C8.81594 13.8252 8.8526 13.9152 8.91594 13.9719C8.97927 14.0285 9.06094 14.0569 9.16094 14.0569C9.25094 14.0569 9.32427 14.0352 9.38094 13.9919C9.44094 13.9452 9.47094 13.8819 9.47094 13.8019C9.47094 13.6985 9.4226 13.6185 9.32594 13.5619C9.22927 13.5052 9.0726 13.4419 8.85594 13.3719C8.62594 13.2952 8.43927 13.2219 8.29594 13.1519C8.15594 13.0785 8.0326 12.9735 7.92594 12.8369C7.8226 12.6969 7.77094 12.5152 7.77094 12.2919C7.77094 12.0652 7.8276 11.8719 7.94094 11.7119C8.05427 11.5485 8.21094 11.4252 8.41094 11.3419C8.61094 11.2585 8.8376 11.2169 9.09094 11.2169C9.50094 11.2169 9.8276 11.3135 10.0709 11.5069C10.3176 11.6969 10.4493 11.9652 10.4659 12.3119H9.40094C9.3976 12.2052 9.36427 12.1252 9.30094 12.0719C9.24094 12.0185 9.1626 11.9919 9.06594 11.9919C8.9926 11.9919 8.9326 12.0135 8.88594 12.0569C8.83927 12.1002 8.81594 12.1619 8.81594 12.2419C8.81594 12.3085 8.84094 12.3669 8.89094 12.4169C8.94427 12.4635 9.00927 12.5052 9.08594 12.5419C9.1626 12.5752 9.27594 12.6185 9.42594 12.6719C9.64927 12.7485 9.8326 12.8252 9.97594 12.9019C10.1226 12.9752 10.2476 13.0802 10.3509 13.2169C10.4576 13.3502 10.5109 13.5202 10.5109 13.7269C10.5109 13.9369 10.4576 14.1252 10.3509 14.2919C10.2476 14.4585 10.0959 14.5902 9.89594 14.6869C9.69927 14.7835 9.46594 14.8319 9.19594 14.8319ZM14.3965 11.2719L13.1815 14.7969H11.9265L10.7065 11.2719H11.7565L12.5565 13.8169L13.3515 11.2719H14.3965Z" fill="white"/>
</svg>
