<svg width="40" height="40" viewBox="0 0 40 40" fill="none" xmlns="http://www.w3.org/2000/svg">
<circle cx="20" cy="20" r="20" fill="#6554C0"/>
<g clip-path="url(#clip0_1_3200)">
<path d="M31.0689 22.4896L31.0637 22.481C30.8235 22.1154 30.457 21.8513 30.0342 21.7391C29.6115 21.6269 29.1622 21.6747 28.7724 21.8731L26.3694 23.1024C26.0818 22.6981 25.6584 22.4108 25.1765 22.2928C24.6946 22.1748 24.1863 22.234 23.7444 22.4596L20.7185 24.0106C20.5606 24.0918 20.3854 24.1336 20.2078 24.1324C20.0302 24.1313 19.8555 24.0874 19.6985 24.0043L17.636 22.9093C16.8555 22.4926 15.9748 22.3003 15.0916 22.3538C14.2084 22.4073 13.3574 22.7044 12.6328 23.2123L12.3996 22.1015C12.3894 22.0532 12.3698 22.0073 12.3418 21.9666C12.3139 21.9258 12.2782 21.891 12.2368 21.8641C12.1953 21.8372 12.149 21.8187 12.1004 21.8098C12.0518 21.8009 12.002 21.8016 11.9537 21.812L9.04593 22.4394C8.94912 22.4603 8.86451 22.5186 8.81055 22.6016C8.75659 22.6847 8.73767 22.7857 8.75793 22.8826L10.4511 30.95C10.4683 31.0346 10.5142 31.1106 10.581 31.1653C10.6479 31.2199 10.7315 31.2498 10.8178 31.25C10.8443 31.2499 10.8706 31.2471 10.8966 31.2418L13.8058 30.6155C13.9028 30.5947 13.9875 30.5364 14.0416 30.4532C14.0956 30.3701 14.1145 30.2689 14.0942 30.1719L13.9442 29.4496L14.9383 29.2359C15.2279 29.1741 15.526 29.1627 15.8195 29.2021L20.4954 29.7148C21.4662 29.8434 22.4504 29.6123 23.2625 29.0653L30.7524 24.0403C30.9973 23.8744 31.1676 23.6193 31.2268 23.3295C31.2859 23.0396 31.2293 22.7382 31.0689 22.4896ZM11.1077 30.4273L9.5683 23.0941L11.7433 22.6254L13.2838 29.9589L11.1077 30.4273ZM30.335 23.4185L22.8455 28.4435C22.1812 28.8887 21.3769 29.0754 20.5843 28.9685L15.9088 28.4559C15.5325 28.4055 15.1504 28.4207 14.7793 28.5009L13.7885 28.7139L12.8001 24.0106L13.0562 23.8321C13.6678 23.4019 14.3868 23.1498 15.1332 23.1039C15.8796 23.0579 16.6241 23.2199 17.2839 23.5719L19.3464 24.6669C19.6099 24.8071 19.9034 24.8813 20.2019 24.8834C20.5003 24.8854 20.7948 24.8151 21.0602 24.6785L24.0875 23.1256C24.3901 22.971 24.7404 22.9384 25.0663 23.0346C25.3921 23.1307 25.6687 23.3483 25.8388 23.6424C25.8889 23.7284 25.9031 23.8308 25.8783 23.9273C25.8534 24.0237 25.7915 24.1065 25.706 24.1576L21.5338 26.6326C20.8042 27.0682 19.9349 27.2058 19.1064 27.017L15.3429 26.117L15.1685 26.8468L18.9358 27.7468C19.9527 27.9797 21.0202 27.8117 21.9163 27.2776L26.0889 24.8026C26.2597 24.7 26.4002 24.5539 26.496 24.3791C26.5918 24.2044 26.6395 24.0073 26.6342 23.8081L29.1125 22.5399C29.337 22.4259 29.5955 22.3984 29.8389 22.4627C30.0823 22.5269 30.2936 22.6784 30.4325 22.8883L30.4367 22.895C30.4906 22.9785 30.5102 23.0796 30.4913 23.1772C30.4723 23.2748 30.4163 23.3613 30.335 23.4185Z" fill="white"/>
<path d="M15.875 18.5C15.7755 18.5 15.6802 18.5395 15.6098 18.6098C15.5395 18.6802 15.5 18.7755 15.5 18.875V21.125C15.5 21.2245 15.5395 21.3198 15.6098 21.3902C15.6802 21.4605 15.7755 21.5 15.875 21.5H17.375C17.4745 21.5 17.5698 21.4605 17.6402 21.3902C17.7105 21.3198 17.75 21.2245 17.75 21.125V18.875C17.75 18.7755 17.7105 18.6802 17.6402 18.6098C17.5698 18.5395 17.4745 18.5 17.375 18.5H15.875ZM17 20.75H16.25V19.25H17V20.75Z" fill="white"/>
<path d="M19.25 15.875C19.1505 15.875 19.0552 15.9145 18.9848 15.9848C18.9145 16.0552 18.875 16.1505 18.875 16.25V21.125C18.875 21.2245 18.9145 21.3198 18.9848 21.3902C19.0552 21.4605 19.1505 21.5 19.25 21.5H20.75C20.8495 21.5 20.9448 21.4605 21.0152 21.3902C21.0855 21.3198 21.125 21.2245 21.125 21.125V16.25C21.125 16.1505 21.0855 16.0552 21.0152 15.9848C20.9448 15.9145 20.8495 15.875 20.75 15.875H19.25ZM20.375 20.75H19.625V16.625H20.375V20.75Z" fill="white"/>
<path d="M22.625 17C22.5255 17 22.4302 17.0395 22.3598 17.1098C22.2895 17.1802 22.25 17.2755 22.25 17.375V21.125C22.25 21.2245 22.2895 21.3198 22.3598 21.3902C22.4302 21.4605 22.5255 21.5 22.625 21.5H24.125C24.2245 21.5 24.3198 21.4605 24.3902 21.3902C24.4605 21.3198 24.5 21.2245 24.5 21.125V17.375C24.5 17.2755 24.4605 17.1802 24.3902 17.1098C24.3198 17.0395 24.2245 17 24.125 17H22.625ZM23.75 20.75H23V17.75H23.75V20.75Z" fill="white"/>
<path d="M26 15.125C25.9005 15.125 25.8052 15.1645 25.7348 15.2348C25.6645 15.3052 25.625 15.4005 25.625 15.5V21.125C25.625 21.2245 25.6645 21.3198 25.7348 21.3902C25.8052 21.4605 25.9005 21.5 26 21.5H27.5C27.5995 21.5 27.6948 21.4605 27.7652 21.3902C27.8355 21.3198 27.875 21.2245 27.875 21.125V15.5C27.875 15.4005 27.8355 15.3052 27.7652 15.2348C27.6948 15.1645 27.5995 15.125 27.5 15.125H26ZM27.125 20.75H26.375V15.875H27.125V20.75Z" fill="white"/>
<path d="M15.8745 12.6552L18.2344 15.0151C18.3047 15.0854 18.4001 15.1249 18.4995 15.1249C18.5989 15.1249 18.6943 15.0854 18.7646 15.0151L22.9995 10.7803L26.1094 13.8901C26.1797 13.9604 26.2751 13.9999 26.3745 13.9999C26.4739 13.9999 26.5693 13.9604 26.6396 13.8901L30.4995 10.0303V11H31.2495V9.125C31.2495 9.02554 31.21 8.93016 31.1397 8.85983C31.0693 8.78951 30.974 8.75 30.8745 8.75H28.9995V9.5H29.9693L26.3745 13.0948L23.2646 9.98488C23.1943 9.91457 23.0989 9.87508 22.9995 9.87508C22.9001 9.87508 22.8047 9.91457 22.7344 9.98488L18.4995 14.2198L16.1396 11.8599C16.0693 11.7896 15.9739 11.7501 15.8745 11.7501C15.7751 11.7501 15.6797 11.7896 15.6094 11.8599L10.3594 17.1099L10.8896 17.6401L15.8745 12.6552Z" fill="white"/>
</g>
<defs>
<clipPath id="clip0_1_3200">
<rect width="24" height="24" fill="white" transform="translate(8 8)"/>
</clipPath>
</defs>
</svg>
