<svg width="40" height="40" viewBox="0 0 40 40" fill="none" xmlns="http://www.w3.org/2000/svg">
<circle cx="20" cy="20" r="20" fill="#DA2853"/>
<g clip-path="url(#clip0_1_3173)">
<path d="M10.8203 20.2344V23.2937" stroke="white" stroke-width="0.9375" stroke-miterlimit="10" stroke-linecap="round" stroke-linejoin="round"/>
<path d="M10.8203 23.2937V20.2344" stroke="white" stroke-width="0.9375" stroke-miterlimit="10" stroke-linecap="round" stroke-linejoin="round"/>
<path d="M10.8203 23.2937V20.2344" stroke="white" stroke-width="0.9375" stroke-miterlimit="10" stroke-linecap="round" stroke-linejoin="round"/>
<path d="M13.6484 30.1167V24.4688" stroke="white" stroke-width="0.9375" stroke-miterlimit="10" stroke-linecap="round" stroke-linejoin="round"/>
<path d="M18.8233 19.2927V23.2934C18.8233 23.6181 18.6916 23.9128 18.4788 24.1255C18.2661 24.3382 17.9714 24.47 17.6467 24.47C16.9967 24.47 16.47 23.9433 16.47 23.2934V30.118C16.47 30.5077 16.3119 30.8607 16.0563 31.1163C15.8007 31.3719 15.4477 31.53 15.058 31.53C14.2781 31.53 13.646 30.8979 13.646 30.118C13.646 30.898 13.0139 31.53 12.2341 31.53C11.8444 31.53 11.4914 31.3719 11.2358 31.1163C10.9802 30.8607 10.8221 30.5077 10.8221 30.118V23.2934C10.8221 23.6181 10.6903 23.9128 10.4775 24.1255C10.2596 24.3434 9.95558 24.4766 9.62141 24.4696C8.97659 24.4569 8.46875 23.9113 8.46875 23.2665V19.2927C8.46875 17.733 9.73297 16.4688 11.2927 16.4688H15.9994C17.5591 16.4688 18.8233 17.7329 18.8233 19.2927Z" stroke="white" stroke-width="0.9375" stroke-miterlimit="10" stroke-linecap="round" stroke-linejoin="round"/>
<path d="M13.6484 30.1167V24.4688" stroke="white" stroke-width="0.9375" stroke-miterlimit="10" stroke-linecap="round" stroke-linejoin="round"/>
<path d="M13.6463 16.4722C14.946 16.4722 15.9996 15.4186 15.9996 14.1189C15.9996 12.8192 14.946 11.7656 13.6463 11.7656C12.3466 11.7656 11.293 12.8192 11.293 14.1189C11.293 15.4186 12.3466 16.4722 13.6463 16.4722Z" stroke="white" stroke-width="0.9375" stroke-miterlimit="10" stroke-linecap="round" stroke-linejoin="round"/>
<path d="M16.4688 20.2344V23.2937" stroke="white" stroke-width="0.9375" stroke-miterlimit="10" stroke-linecap="round" stroke-linejoin="round"/>
<path d="M14 16.4453H14.0005L14.0734 16.4721" stroke="white" stroke-width="0.9375" stroke-miterlimit="10" stroke-linecap="round" stroke-linejoin="round"/>
<path d="M16.4861 23.494C16.4793 23.4882 16.474 23.4824 16.4688 23.4766" stroke="white" stroke-width="0.9375" stroke-miterlimit="10" stroke-linecap="round" stroke-linejoin="round"/>
<path d="M14.6836 12.0039L16.3493 10.3382L17.605 11.594C18.5534 10.9124 19.6618 10.4399 20.8629 10.2441V8.46875H23.3735V10.2441C24.5746 10.4399 25.683 10.9124 26.6314 11.594L27.8872 10.3382L29.662 12.1131L28.4063 13.3688C29.0878 14.3172 29.5604 15.4256 29.7562 16.6268H31.5315V19.1373H29.7561C29.5603 20.3384 29.0878 21.4468 28.4062 22.3952L29.662 23.651L27.8871 25.4258L26.6314 24.1701C25.683 24.8516 24.5746 25.3242 23.3734 25.52V27.2953H20.8629V25.52C19.8166 25.3496 18.8409 24.9688 17.9796 24.4233" stroke="white" stroke-width="0.9375" stroke-miterlimit="10" stroke-linecap="round" stroke-linejoin="round"/>
<path d="M17.2969 16.7833C17.7953 14.5815 19.7636 12.9375 22.1165 12.9375C24.8459 12.9375 27.0585 15.1501 27.0585 17.8794C27.0585 20.6088 24.8458 22.8215 22.1165 22.8215C20.8504 22.8215 19.6963 22.3456 18.8218 21.5629" stroke="white" stroke-width="0.9375" stroke-miterlimit="10" stroke-linecap="round" stroke-linejoin="round"/>
<path d="M23.0518 15.8163C23.0518 15.8163 22.4877 15.337 21.7035 15.5733C20.9526 15.7995 20.7662 16.8269 21.2764 17.2271C21.5694 17.4569 22.0103 17.6458 22.6044 17.8559C23.9342 18.326 23.4426 20.2013 22.09 20.2103C21.562 20.2138 21.3152 20.1803 20.8516 19.877" stroke="white" stroke-width="0.9375" stroke-miterlimit="10" stroke-linecap="round" stroke-linejoin="round"/>
<path d="M22.1172 20.2109V20.9089" stroke="white" stroke-width="0.9375" stroke-miterlimit="10" stroke-linecap="round" stroke-linejoin="round"/>
<path d="M22.1172 14.8555V15.5072" stroke="white" stroke-width="0.9375" stroke-miterlimit="10" stroke-linecap="round" stroke-linejoin="round"/>
</g>
<defs>
<clipPath id="clip0_1_3173">
<rect width="24" height="24" fill="white" transform="translate(8 8)"/>
</clipPath>
</defs>
</svg>
