<svg width="40" height="40" viewBox="0 0 40 40" fill="none" xmlns="http://www.w3.org/2000/svg">
<circle cx="20" cy="20" r="20" fill="#1781CE"/>
<path d="M20 12C15.5817 12 12 15.5817 12 20C12 24.4183 15.5817 28 20 28C20.3012 28 20.5982 27.9834 20.8901 27.9511C21.4391 27.8904 21.9333 28.2863 21.9939 28.8352C22.0546 29.3841 21.6588 29.8783 21.1099 29.939C20.7451 29.9793 20.3748 30 20 30C14.4771 30 10 25.5228 10 20C10 14.4771 14.4771 10 20 10C24.3699 10 28.0827 12.8024 29.4442 16.7051C29.6261 17.2266 29.3508 17.7968 28.8294 17.9787C28.3079 18.1606 27.7377 17.8853 27.5558 17.3639C26.4658 14.2394 23.4931 12 20 12Z" fill="white" stroke="#1781CE" stroke-width="0.5"/>
<path d="M26 18C26.5523 18 27 18.4477 27 19V20H28C28.5523 20 29 20.4477 29 21C29 21.5523 28.5523 22 28 22H25.5C25.2239 22 25 22.2239 25 22.5C25 22.7761 25.2239 23 25.5 23H26.5C27.8807 23 29 24.1193 29 25.5C29 26.7099 28.1405 27.7191 26.9988 27.9502C26.9996 27.9667 27 27.9833 27 28V29C27 29.5523 26.5523 30 26 30C25.4477 30 25 29.5523 25 29V28H24C23.4477 28 23 27.5523 23 27C23 26.4477 23.4477 26 24 26H26.5C26.7761 26 27 25.7761 27 25.5C27 25.2239 26.7761 25 26.5 25H25.5C24.1193 25 23 23.8807 23 22.5C23 21.2901 23.8595 20.2809 25.0012 20.0498C25.0004 20.0333 25 20.0167 25 20V19C25 18.4477 25.4477 18 26 18Z" fill="white" stroke="#1781CE" stroke-width="0.5"/>
<path d="M21 15C21 14.4477 20.5523 14 20 14C19.4477 14 19 14.4477 19 15V19.5858L16.2929 22.2929C15.9024 22.6834 15.9024 23.3166 16.2929 23.7071C16.6834 24.0976 17.3166 24.0976 17.7071 23.7071L20.7071 20.7071C20.8946 20.5196 21 20.2652 21 20V15Z" fill="white" stroke="#1781CE" stroke-width="0.5"/>
</svg>
