<svg width="40" height="40" viewBox="0 0 40 40" fill="none" xmlns="http://www.w3.org/2000/svg">
<circle cx="20" cy="20" r="20" fill="#00A473"/>
<path d="M18.6615 26.8354L18.6594 26.8355C18.5467 26.835 18.4387 26.7898 18.3593 26.7098C18.28 26.6298 18.2356 26.5215 18.236 26.4088C18.236 26.4088 18.236 26.4088 18.236 26.4088L18.2365 26.2586C17.871 26.1683 17.542 25.9667 17.2954 25.6814C17.0399 25.3858 16.8862 25.0159 16.857 24.6264L16.8569 24.6255L16.857 24.6255C16.8505 24.514 16.8883 24.4044 16.9621 24.3205C17.0359 24.2366 17.1398 24.1852 17.2512 24.1773C17.3626 24.1694 17.4727 24.2058 17.5575 24.2785C17.6424 24.3512 17.6952 24.4544 17.7045 24.5657L17.7045 24.5663L17.7045 24.5663C17.7178 24.7541 17.7855 24.9338 17.8995 25.0836C18.0134 25.2334 18.1686 25.3466 18.346 25.4095C18.5233 25.4724 18.7152 25.4821 18.898 25.4375C19.0808 25.3929 19.2467 25.2959 19.3752 25.1584C19.5037 25.021 19.5893 24.849 19.6214 24.6636C19.6536 24.4782 19.631 24.2874 19.5563 24.1147C19.4816 23.9419 19.3582 23.7947 19.2011 23.6911C19.044 23.5876 18.86 23.5321 18.6719 23.5315C18.224 23.5303 17.7923 23.3637 17.4599 23.0635C17.1274 22.7634 16.9176 22.351 16.8709 21.9055C16.8241 21.4601 16.9436 21.0131 17.2064 20.6504C17.4614 20.2986 17.8337 20.0503 18.2554 19.9498L18.2558 19.798L18.2558 19.7973L18.2558 19.7973C18.2578 19.6857 18.3036 19.5793 18.3833 19.5011C18.4631 19.423 18.5704 19.3794 18.682 19.3797C18.7937 19.38 18.9007 19.4243 18.98 19.5029C19.0593 19.5815 19.1045 19.6881 19.1058 19.7998L19.1058 19.8005H19.1058L19.1054 19.9524C19.4624 20.0378 19.7854 20.2299 20.031 20.5036C20.2857 20.7874 20.4442 21.1444 20.4839 21.5237L20.484 21.5238C20.4954 21.6357 20.462 21.7475 20.3911 21.8348C20.3202 21.9221 20.2176 21.9777 20.1057 21.9895C19.9939 22.0012 19.8819 21.9682 19.7944 21.8975C19.7069 21.8269 19.651 21.7245 19.6389 21.6127L19.6389 21.6126C19.6192 21.4269 19.5461 21.251 19.4285 21.1059C19.3109 20.9609 19.1538 20.8531 18.9762 20.7954C18.7987 20.7377 18.6082 20.7327 18.4278 20.7809C18.2475 20.8292 18.085 20.9286 17.9599 21.0672C17.8348 21.2058 17.7526 21.3777 17.7231 21.5621C17.6936 21.7464 17.7181 21.9354 17.7936 22.1061C17.8692 22.2768 17.9926 22.422 18.1489 22.5241C18.3051 22.6262 18.4876 22.6809 18.6743 22.6815C18.6743 22.6815 18.6744 22.6815 18.6744 22.6815L18.6742 22.7315M18.6615 26.8354L19.9218 23.2526C19.7587 23.0876 19.5644 22.9565 19.3502 22.8671C19.1361 22.7776 18.9063 22.7315 18.6742 22.7315M18.6615 26.8354C18.8401 26.8286 18.9571 26.749 19.023 26.6286C19.0803 26.5239 19.0964 26.3931 19.0896 26.2633L18.6615 26.8354ZM18.6742 22.7315C18.4779 22.7309 18.2859 22.6734 18.1215 22.566C17.9571 22.4586 17.8274 22.3059 17.7479 22.1263C17.6684 21.9468 17.6427 21.748 17.6737 21.5541C17.7047 21.3603 17.7912 21.1795 17.9228 21.0337C18.0543 20.8879 18.2252 20.7834 18.4149 20.7326C18.6046 20.6819 18.8049 20.6872 18.9917 20.7478C19.1784 20.8085 19.3436 20.9219 19.4673 21.0744C19.591 21.227 19.6678 21.412 19.6886 21.6073C19.6993 21.7059 19.7486 21.7963 19.8259 21.8586C19.9031 21.921 20.0018 21.9501 20.1005 21.9397C20.1992 21.9294 20.2897 21.8803 20.3523 21.8033C20.4148 21.7263 20.4443 21.6276 20.4342 21.5289M18.6742 22.7315L20.4342 21.5289M20.4342 21.5289C20.3956 21.1601 20.2415 20.813 19.9938 20.537C19.7462 20.2611 19.4177 20.0704 19.0553 19.9922L20.4342 21.5289Z" fill="white" stroke="white" stroke-width="0.1"/>
<path d="M28.4831 13.146L28.4837 13.1466C28.5417 13.2065 28.5809 13.282 28.5965 13.3639C28.6121 13.4459 28.6034 13.5305 28.5715 13.6076C28.5396 13.6846 28.4859 13.7506 28.4169 13.7975C28.3488 13.8439 28.2687 13.8695 28.1863 13.8714C28.1853 13.8714 28.1844 13.8715 28.1834 13.8715L28.1826 13.8215C28.0218 13.8431 27.8208 13.6272 27.6659 13.4609C27.6298 13.4221 27.5961 13.386 27.5661 13.3563L28.4831 13.146ZM28.4831 13.146L27.4416 12.1045M28.4831 13.146L27.4416 12.1045M25.7584 21.9883C25.5105 20.8138 25.0129 19.7062 24.2994 18.7408C23.602 17.7973 22.7142 17.011 21.694 16.4328C22.2175 16.0783 22.6648 15.6221 23.0091 15.0912C23.3682 14.5375 23.6074 13.9148 23.7113 13.2632C23.8764 12.4524 23.6723 11.8084 23.2542 11.3715C22.8477 10.9467 22.2439 10.7228 21.5958 10.7269C21.5922 10.5709 21.5806 10.4152 21.561 10.2604L21.5609 10.2597C21.5365 10.0872 21.4652 9.9247 21.3548 9.78998C21.2443 9.65526 21.099 9.55349 20.9346 9.4958C20.7702 9.43811 20.5931 9.42672 20.4227 9.46287C20.2527 9.49895 20.0958 9.58098 19.9691 9.70004C19.6812 9.94858 19.3254 10.105 18.9476 10.149C18.5695 10.1931 18.1869 10.1226 17.8493 9.9466L17.849 9.94645C17.7363 9.8886 17.6334 9.81325 17.5442 9.72321L17.5442 9.7232L17.5431 9.72217C17.4177 9.6028 17.261 9.52127 17.0913 9.48694C16.9217 9.45266 16.7459 9.46687 16.5841 9.52794C16.3075 9.62495 16.14 9.81223 16.0449 10.039C15.9571 10.2484 15.9311 10.4908 15.9344 10.7267C15.2981 10.7221 14.6952 10.9437 14.2856 11.3627C13.8637 11.7943 13.6518 12.4308 13.815 13.2305C13.9153 13.8865 14.1525 14.5141 14.5111 15.0725C14.855 15.6082 15.3033 16.0687 15.8289 16.4269C14.7887 17.0088 13.6848 17.9081 12.8425 19.2938C11.9806 20.7116 11.3944 22.6359 11.4279 25.245L11.428 25.2465C11.4969 26.8379 12.2888 28.1549 13.6116 29.0788C14.9333 30.0019 16.784 30.5323 18.974 30.5572L18.974 30.5573L18.9773 30.5571C21.2709 30.4302 23.1015 29.7871 24.333 28.7605C25.5584 27.739 26.1875 26.3398 26.0892 24.7022C26.5358 24.4257 26.9054 24.0409 27.1636 23.5832C27.4268 23.1167 27.5655 22.5903 27.5661 22.0547V22.0546V13.4277L25.7096 21.9993M25.7584 21.9883C25.7584 21.9886 25.7585 21.9888 25.7585 21.989L25.7096 21.9993M25.7584 21.9883C25.7583 21.9881 25.7583 21.9879 25.7582 21.9877L25.7096 21.9993M25.7584 21.9883C25.7713 22.0424 25.7734 22.0985 25.7647 22.1534C25.756 22.2085 25.7365 22.2614 25.7073 22.309C25.6781 22.3566 25.6398 22.398 25.5947 22.4308C25.5495 22.4636 25.4983 22.4872 25.444 22.5002C25.3897 22.5132 25.3334 22.5154 25.2783 22.5067C25.2232 22.4979 25.1703 22.4784 25.1227 22.4492C25.0751 22.42 25.0337 22.3818 25.0009 22.3366C24.9681 22.2914 24.9445 22.2403 24.9315 22.186L24.9315 22.1857C24.4482 20.1154 23.2417 18.5002 21.8456 17.5065C20.4481 16.5117 18.8675 16.1438 17.6347 16.554M25.7096 21.9993C25.7211 22.0472 25.723 22.0969 25.7153 22.1456C25.7076 22.1942 25.6904 22.2409 25.6646 22.2829C25.6389 22.3249 25.6051 22.3614 25.5653 22.3903C25.5254 22.4193 25.4803 22.4401 25.4324 22.4516C25.3845 22.4631 25.3348 22.465 25.2861 22.4573C25.2375 22.4496 25.1908 22.4323 25.1488 22.4066C25.1068 22.3809 25.0703 22.3471 25.0414 22.3072C25.0124 22.2674 24.9916 22.2222 24.9801 22.1743C24.0079 18.0089 20.1247 15.6727 17.6189 16.5065M17.6347 16.554C17.6347 16.554 17.6348 16.554 17.6348 16.554L17.6189 16.5065M17.6347 16.554C16.6174 16.8944 15.2597 17.5723 14.1659 18.9094C13.0727 20.2457 12.2397 22.2445 12.2779 25.2334M17.6347 16.554L17.6189 16.5065M17.6189 16.5065C15.5725 17.1914 12.151 19.2355 12.2279 25.2349M24.4458 25.1249H23.1315C23.032 25.1249 22.9366 25.0854 22.8663 25.0151C22.796 24.9448 22.7565 24.8494 22.7565 24.7499C22.7565 24.6505 22.796 24.5551 22.8663 24.4848C22.9366 24.4145 23.032 24.3749 23.1315 24.3749H24.4458M24.4458 25.1249L25.8345 13.1813C25.7642 13.2517 25.7247 13.347 25.7247 13.4465C25.7247 13.5459 25.7642 13.6413 25.8345 13.7116C25.9048 13.7819 26.0002 13.8214 26.0996 13.8214C26.1991 13.8214 26.2944 13.7819 26.3648 13.7116L26.7161 13.3603V13.431M24.4458 25.1249C24.715 25.1244 24.9829 25.0883 25.2424 25.0176M24.4458 25.1249L25.2424 25.0176M24.4458 24.3749C25.0606 24.3729 25.6495 24.1277 26.0842 23.693C26.5189 23.2583 26.764 22.6694 26.7661 22.0546M24.4458 24.3749V24.3249C24.4458 24.3249 24.4457 24.3249 24.4457 24.3249M24.4458 24.3749L24.4457 24.3249M26.7661 22.0546V13.381L26.7161 13.431M26.7661 22.0546H26.7161L26.7161 22.0545L26.7161 13.431M26.7661 22.0546L26.8406 12.1045M26.7161 13.431L26.4001 13.747C26.3204 13.8267 26.2123 13.8714 26.0996 13.8714C25.9869 13.8714 25.8788 13.8267 25.7991 13.747C25.7194 13.6673 25.6747 13.5592 25.6747 13.4465C25.6747 13.3338 25.7194 13.2257 25.7991 13.146L26.8406 12.1045M26.8406 12.1045C26.8406 12.1045 26.8406 12.1045 26.8406 12.1045M26.8406 12.1045L26.8406 12.1045M24.4457 24.3249L23.1315 24.3249C23.0188 24.3249 22.9107 24.3697 22.831 24.4494C22.7513 24.5291 22.7065 24.6372 22.7065 24.7499C22.7065 24.8627 22.7513 24.9708 22.831 25.0505C22.9107 25.1302 23.0188 25.1749 23.1315 25.1749H24.4458H24.4459C24.7157 25.1744 24.9842 25.1387 25.2447 25.0688M24.4457 24.3249L25.2447 25.0688M25.2447 25.0688C25.2721 25.8214 25.0531 26.5631 24.6202 27.1807L24.6201 27.1807L24.6187 27.183C23.9415 28.2689 21.7381 29.7599 18.5834 29.7079M25.2447 25.0688C25.2612 25.0643 25.2777 25.0598 25.2942 25.055C25.3247 25.8226 25.1026 26.5796 24.6611 27.2094C23.9728 28.3132 21.7508 29.8105 18.5816 29.7578M25.2447 25.0688C25.2441 25.0517 25.2433 25.0347 25.2424 25.0176M25.2447 25.0688L25.2424 25.0176M18.5834 29.7079C16.6702 29.6039 15.1213 29.1145 14.0376 28.3368C12.955 27.56 12.3355 26.4952 12.2779 25.2334M18.5834 29.7079C18.5837 29.7079 18.584 29.7079 18.5844 29.7079L18.5816 29.7578M18.5834 29.7079C18.5831 29.7078 18.5828 29.7078 18.5825 29.7078L18.5816 29.7578M12.2779 25.2334C12.2779 25.2337 12.2779 25.234 12.2779 25.2342L12.2279 25.2349M12.2779 25.2334C12.2778 25.2331 12.2778 25.2329 12.2778 25.2326L12.2279 25.2349M12.2279 25.2349C12.3443 27.7928 14.7416 29.5494 18.5816 29.7578M27.4416 12.1045C27.4416 12.1045 27.4416 12.1045 27.4416 12.1045M27.4416 12.1045L27.4416 12.1045M27.4416 12.1045C27.4022 12.065 27.3553 12.0337 27.3038 12.0123M27.4416 12.1045L27.3038 12.0123M27.3038 12.0123C27.2522 11.991 27.1969 11.98 27.1411 11.98M27.3038 12.0123L27.1411 11.98M27.1411 11.98C27.0853 11.98 27.0301 11.991 26.9785 12.0123M27.1411 11.98L26.9785 12.0123M26.9785 12.0123C26.9269 12.0337 26.8801 12.065 26.8406 12.1045M26.9785 12.0123L26.8406 12.1045M21.6474 16.464C21.631 16.4548 21.6146 16.4456 21.5982 16.4365C21.6139 16.4262 21.6296 16.4159 21.6452 16.4054L21.6474 16.464ZM22.8694 13.1552L22.869 13.1552L22.8685 13.1611C22.8685 13.1611 22.8685 13.1615 22.8684 13.1625L22.868 13.1666L22.8662 13.1817C22.8646 13.1949 22.862 13.2141 22.858 13.2389C22.85 13.2884 22.8364 13.3599 22.8142 13.4489C22.7696 13.6271 22.6902 13.8756 22.5507 14.1594C22.2739 14.7224 21.7601 15.4253 20.8101 15.9955C20.5762 15.8937 20.3368 15.805 20.093 15.7299C20.8406 14.4516 21.3365 13.0419 21.5537 11.5769C21.994 11.5758 22.3738 11.6902 22.6183 11.9338C22.8686 12.1832 22.9871 12.5781 22.8694 13.1552ZM14.6577 13.1277L14.658 13.1277L14.6569 13.1225C14.5415 12.563 14.6661 12.1742 14.9202 11.9273C15.1685 11.6859 15.5494 11.5714 15.9797 11.5757C15.9885 11.6333 15.9949 11.6993 16.0019 11.7709C16.0044 11.7968 16.007 11.8235 16.0098 11.8508C16.022 11.9692 16.0379 12.0964 16.07 12.2108C16.1019 12.3247 16.1514 12.432 16.2347 12.505C16.3203 12.5801 16.4352 12.6136 16.5851 12.5914L16.5852 12.5918L16.5912 12.5901C16.7465 12.5468 16.8381 12.4597 16.883 12.3444C16.9264 12.2329 16.9239 12.1009 16.9063 11.9697C16.8937 11.8751 16.8723 11.7757 16.8518 11.6804C16.8439 11.6437 16.8362 11.6077 16.8291 11.5727C16.803 11.4438 16.7863 11.3305 16.7975 11.2416L16.7984 11.2418L16.7977 11.2321C16.7794 10.9557 16.7836 10.6783 16.8102 10.4026C16.8123 10.387 16.8181 10.3721 16.8273 10.3593C16.8366 10.3464 16.849 10.336 16.8634 10.329C16.8777 10.3221 16.8936 10.3189 16.9095 10.3197C16.9241 10.3204 16.9383 10.3244 16.951 10.3315C17.4438 10.771 18.081 11.0143 18.7414 11.0151C19.4025 11.0159 20.0407 10.7736 20.5347 10.3344C20.5844 10.3009 20.6188 10.2904 20.6411 10.2902C20.6604 10.2899 20.6751 10.2972 20.6892 10.3151C20.7048 10.335 20.7185 10.3674 20.7288 10.4132C20.739 10.4583 20.7449 10.5124 20.7479 10.5722C20.7537 10.692 20.7471 10.8288 20.7406 10.9521C20.7402 10.9592 20.7399 10.9662 20.7395 10.9731C20.7337 11.082 20.7284 11.1829 20.735 11.2433C20.6461 12.4779 20.138 13.9241 19.2206 15.5468C18.9173 15.5145 18.6113 15.5143 18.3079 15.5461C17.9349 14.8968 17.6111 14.2205 17.3392 13.5228L17.339 13.5224C17.2976 13.4187 17.2171 13.3356 17.1148 13.2908C17.0126 13.2461 16.8968 13.2434 16.7926 13.2833C16.6883 13.3232 16.604 13.4025 16.5577 13.5041C16.5115 13.6057 16.5071 13.7214 16.5455 13.8262L16.5455 13.8262L16.5458 13.8271C16.7995 14.4801 17.0968 15.1151 17.4358 15.7281C17.1912 15.8033 16.9509 15.8916 16.7158 15.9927C14.8309 14.8602 14.667 13.2224 14.6577 13.1277Z" fill="white" stroke="white" stroke-width="0.1"/>
</svg>
