<svg width="24" height="24" viewBox="0 0 24 24" fill="none" xmlns="http://www.w3.org/2000/svg">
<path d="M3.51823 6.77735C3.29671 6.44507 3.53491 6 3.93426 6H20.1752C20.5719 6 20.8107 6.43987 20.5944 6.77249L19.3691 8.65768C19.2215 8.88472 18.9691 9.02169 18.6983 9.02169H5.44261C5.17512 9.02169 4.92534 8.88801 4.77697 8.66545L3.51823 6.77735Z" stroke="#A2A0A2" stroke-width="1.3"/>
<path d="M6.13737 12.7988C5.91586 12.4666 6.15405 12.0215 6.5534 12.0215H17.5232C17.9199 12.0215 18.1586 12.4614 17.9424 12.794L16.717 14.6792C16.5695 14.9062 16.3171 15.0432 16.0463 15.0432H8.06175C7.79427 15.0432 7.54448 14.9095 7.39611 14.6869L6.13737 12.7988Z" stroke="#A2A0A2" stroke-width="1.3"/>
<path d="M8.89561 18.734C8.89819 18.3516 9.20891 18.043 9.59132 18.043H14.9881C15.366 18.043 15.6748 18.3446 15.6836 18.7224L15.7218 20.3526C15.7309 20.7432 15.4168 21.0647 15.0262 21.0647H9.58033C9.19425 21.0647 8.882 20.7503 8.88461 20.3642L8.89561 18.734Z" stroke="#A2A0A2" stroke-width="1.3"/>
</svg>
