<svg width="40" height="40" viewBox="0 0 40 40" fill="none" xmlns="http://www.w3.org/2000/svg">
<circle cx="20" cy="20" r="20" fill="#1FBDD0"/>
<g clip-path="url(#clip0_1_3123)">
<path d="M8.3772 21.2681L10.781 15.175C10.8552 14.9868 11.0679 14.8944 11.2561 14.9687L13.1688 15.7233C13.357 15.7975 13.4494 16.0102 13.3751 16.1983L10.9713 22.2915C10.8971 22.4797 10.6844 22.572 10.4962 22.4978L8.5835 21.7432C8.39534 21.669 8.303 21.4563 8.3772 21.2681Z" stroke="white" stroke-miterlimit="10" stroke-linecap="round" stroke-linejoin="round"/>
<path d="M25.2201 24.6758L23.9688 23.7116" stroke="white" stroke-miterlimit="10" stroke-linecap="round" stroke-linejoin="round"/>
<path d="M23.546 26.0234L22.4336 25.167" stroke="white" stroke-miterlimit="10" stroke-linecap="round" stroke-linejoin="round"/>
<path d="M21.7069 27.25L20.9141 26.6365" stroke="white" stroke-miterlimit="10" stroke-linecap="round" stroke-linejoin="round"/>
<path d="M13.3518 25.2326C12.9603 24.9006 12.912 24.3142 13.244 23.9227L14.113 22.9026C14.445 22.5111 15.0315 22.4628 15.4229 22.7948C15.8144 23.1267 15.8627 23.7132 15.5307 24.1047L14.6617 25.1248C14.3297 25.5163 13.7433 25.5645 13.3518 25.2326Z" stroke="white" stroke-miterlimit="10" stroke-linecap="round" stroke-linejoin="round"/>
<path d="M14.7658 26.4357C14.3743 26.1037 14.3261 25.5173 14.658 25.1258L15.5271 24.1057C15.859 23.7142 16.4455 23.666 16.837 23.9979C17.2285 24.3298 17.2767 24.9163 16.9448 25.3078L16.0758 26.3279C15.7438 26.7194 15.1573 26.7677 14.7658 26.4357Z" stroke="white" stroke-miterlimit="10" stroke-linecap="round" stroke-linejoin="round"/>
<path d="M16.1838 27.6388C15.7923 27.3069 15.744 26.7204 16.076 26.3289L16.9451 25.3088C17.277 24.9174 17.8635 24.8691 18.255 25.201C18.6465 25.533 18.6947 26.1194 18.3628 26.5109L17.4937 27.531C17.1618 27.9225 16.5753 27.9708 16.1838 27.6388Z" stroke="white" stroke-miterlimit="10" stroke-linecap="round" stroke-linejoin="round"/>
<path d="M17.6018 28.842C17.2103 28.51 17.162 27.9235 17.494 27.532L18.363 26.512C18.695 26.1205 19.2815 26.0722 19.6729 26.4042C20.0644 26.7361 20.1127 27.3225 19.7807 27.714L18.9117 28.7341C18.5797 29.1256 17.9933 29.1739 17.6018 28.842Z" stroke="white" stroke-miterlimit="10" stroke-linecap="round" stroke-linejoin="round"/>
<path d="M26.7824 23.2058L26.315 22.8608L24.1165 21.2384L23.8646 21.0613C21.7892 21.4138 20.3978 20.2766 19.8314 19.6852C19.6648 19.5112 19.3899 19.5046 19.2107 19.6656C17.2645 21.4134 16.1376 20.9654 15.5904 20.4455C15.3273 20.1955 15.3726 19.7646 15.6781 19.5685C16.7241 18.8971 17.7009 18.0473 18.3988 17.385L18.2745 17.3384C17.8327 17.1729 17.3684 17.0752 16.8974 17.0488L15.6104 16.9765C15.4418 16.967 15.2727 16.9649 15.1043 16.9757C14.8005 16.9953 14.4955 16.9445 14.2133 16.8264L13.2814 16.4365L10.9961 22.2293L12.8028 23.3688L13.3746 23.7707L14.1122 22.905C14.4441 22.5134 15.0305 22.4652 15.422 22.7971C15.8135 23.1291 15.8618 23.7156 15.5298 24.1071C15.8618 23.7156 16.4483 23.6673 16.8398 23.9992C17.2313 24.3312 17.2795 24.9177 16.9476 25.3092C17.2795 24.9177 17.866 24.8694 18.2575 25.2014C18.649 25.5333 18.6973 26.1198 18.3653 26.5112C18.6973 26.1198 19.2837 26.0715 19.6752 26.4034C20.0667 26.7354 20.115 27.3219 19.783 27.7133L19.4305 28.1271L20.2065 28.6998C20.6374 29.0178 21.2447 28.9813 21.6146 28.5941C21.9748 28.2173 21.9962 27.6502 21.7083 27.2503L22.0974 27.5374C22.5411 27.8649 23.1696 27.8146 23.5343 27.4011C23.8876 27.0004 23.8786 26.4126 23.5487 26.0232L23.7673 26.1845C24.1904 26.4967 24.785 26.4684 25.1573 26.097C25.553 25.7022 25.5635 25.0836 25.2232 24.6759L25.5513 24.9181C26.01 25.2566 26.656 25.1697 27.0085 24.7186C27.3765 24.2477 27.2633 23.5607 26.7824 23.2058Z" stroke="white" stroke-miterlimit="10" stroke-linecap="round" stroke-linejoin="round"/>
<path d="M23.1532 16.9035L20.1886 16.4336C19.7371 16.362 19.2784 16.5115 18.957 16.8366C18.2949 17.5064 17.0453 18.6892 15.6779 19.5669C15.3725 19.763 15.3271 20.1938 15.5903 20.4439C16.1374 20.9638 17.2644 21.4117 19.2105 19.6639C19.3897 19.503 19.6647 19.5096 19.8313 19.6836C20.3986 20.276 21.7934 21.4161 23.8744 21.0582L27.0031 23.3672L28.9586 22.1111L26.7255 16.4507L25.3683 16.9517C24.9919 17.0907 24.5861 17.1306 24.1898 17.0678L23.1532 16.9035Z" stroke="white" stroke-miterlimit="10" stroke-linecap="round" stroke-linejoin="round"/>
<path d="M30.1481 17.524L29.2213 15.1749C29.1471 14.9868 28.9344 14.8944 28.7462 14.9686L26.8335 15.7232C26.6453 15.7975 26.553 16.0102 26.6272 16.1983L29.031 22.2915C29.1052 22.4797 29.318 22.572 29.5061 22.4978L31.4188 21.7432C31.607 21.669 31.6994 21.4563 31.6251 21.2681L30.1481 17.524Z" stroke="white" stroke-miterlimit="10" stroke-linecap="round" stroke-linejoin="round"/>
</g>
<defs>
<clipPath id="clip0_1_3123">
<rect width="24" height="24" fill="white" transform="translate(8 8)"/>
</clipPath>
</defs>
</svg>
